<?xml version="1.0" encoding="UTF-8" standalone="no"?>
<!DOCTYPE svg PUBLIC "-//W3C//DTD SVG 1.1//EN"
 "http://www.w3.org/Graphics/SVG/1.1/DTD/svg11.dtd">
<!-- Generated by graphviz version 9.0.0 (20230911.1827)
 -->
<!-- Title: trace Pages: 1 -->
<svg width="343pt" height="941pt"
 viewBox="0.00 0.00 343.00 940.50" xmlns="http://www.w3.org/2000/svg" xmlns:xlink="http://www.w3.org/1999/xlink">
<g id="graph0" class="graph" transform="scale(1 1) rotate(0) translate(4 936.5)">
<title>trace</title>
<polygon fill="white" stroke="none" points="-4,4 -4,-936.5 339,-936.5 339,4 -4,4"/>
<g id="clust1" class="cluster">
<title>cluster_AS3549</title>
<polygon fill="none" stroke="#608686" points="172,-435.5 172,-518 318,-518 318,-435.5 172,-435.5"/>
<text text-anchor="middle" x="245" y="-504.5" font-family="Times,serif" font-size="10.00">AS3549</text>
<text text-anchor="middle" x="245" y="-493.25" font-family="Times,serif" font-size="10.00">[REACH (Customer Route)]</text>
</g>
<g id="clust2" class="cluster">
<title>cluster_AS3786</title>
<polygon fill="none" stroke="#60baba" points="8,-64 8,-147.5 318,-147.5 318,-64 8,-64"/>
<text text-anchor="middle" x="163" y="-134" font-family="Times,serif" font-size="10.00">AS3786</text>
<text text-anchor="middle" x="163" y="-122.75" font-family="Times,serif" font-size="10.00">[contact noc@bora.net if necessary]</text>
</g>
<g id="clust3" class="cluster">
<title>cluster_AS4766</title>
<polygon fill="none" stroke="#60ffff" points="163,-734 163,-816.5 327,-816.5 327,-734 163,-734"/>
<text text-anchor="middle" x="245" y="-803" font-family="Times,serif" font-size="10.00">AS4766</text>
<text text-anchor="middle" x="245" y="-791.75" font-family="Times,serif" font-size="10.00">[KT]</text>
</g>
<!-- 211.58.252.64 -->
<g id="node1" class="node">
<title>211.58.252.64</title>
<ellipse fill="#608686" stroke="black" cx="245" cy="-461.5" rx="64.66" ry="18"/>
<text text-anchor="middle" x="245" y="-456.45" font-family="Times,serif" font-size="14.00">211.58.252.64</text>
</g>
<!-- unk4 -->
<g id="node10" class="node">
<title>unk4</title>
<ellipse fill="none" stroke="black" cx="245" cy="-389.5" rx="29.34" ry="18"/>
<text text-anchor="middle" x="245" y="-384.45" font-family="Times,serif" font-size="14.00">unk4</text>
</g>
<!-- 211.58.252.64&#45;&gt;unk4 -->
<g id="edge7" class="edge">
<title>211.58.252.64&#45;&gt;unk4</title>
<path fill="none" stroke="#a07070" d="M245,-443.2C245,-435.91 245,-427.23 245,-419.04"/>
<polygon fill="#a07070" stroke="#a07070" points="248.5,-419.12 245,-409.12 241.5,-419.12 248.5,-419.12"/>
</g>
<!-- 210.93.56.248 -->
<g id="node2" class="node">
<title>210.93.56.248</title>
<ellipse fill="#60baba" stroke="black" cx="245" cy="-90.5" rx="64.66" ry="18"/>
<text text-anchor="middle" x="245" y="-85.45" font-family="Times,serif" font-size="14.00">210.93.56.248</text>
</g>
<!-- unk8 -->
<g id="node14" class="node">
<title>unk8</title>
<ellipse fill="none" stroke="black" cx="189" cy="-18" rx="29.34" ry="18"/>
<text text-anchor="middle" x="189" y="-12.95" font-family="Times,serif" font-size="14.00">unk8</text>
</g>
<!-- 210.93.56.248&#45;&gt;unk8 -->
<g id="edge12" class="edge">
<title>210.93.56.248&#45;&gt;unk8</title>
<path fill="none" stroke="#a07070" d="M231.44,-72.43C224.48,-63.66 215.87,-52.82 208.23,-43.21"/>
<polygon fill="#a07070" stroke="#a07070" points="211.19,-41.3 202.23,-35.65 205.71,-45.66 211.19,-41.3"/>
</g>
<!-- 210.93.48.59 -->
<g id="node3" class="node">
<title>210.93.48.59</title>
<polygon fill="green" stroke="black" points="16,-72.5 16,-108.5 162,-108.5 162,-72.5 16,-72.5"/>
<text text-anchor="middle" x="60" y="-85.45" font-family="Times,serif" font-size="14.00">210.93.48.59</text>
<polyline fill="none" stroke="black" points="104,-72.5 104,-108.5"/>
<text text-anchor="middle" x="133" y="-85.45" font-family="Times,serif" font-size="14.00">http SA</text>
</g>
<!-- 112.189.172.249 -->
<g id="node4" class="node">
<title>112.189.172.249</title>
<ellipse fill="#60ffff" stroke="black" cx="245" cy="-760" rx="73.87" ry="18"/>
<text text-anchor="middle" x="245" y="-754.95" font-family="Times,serif" font-size="14.00">112.189.172.249</text>
</g>
<!-- unk1 -->
<g id="node7" class="node">
<title>unk1</title>
<ellipse fill="none" stroke="black" cx="245" cy="-688" rx="29.34" ry="18"/>
<text text-anchor="middle" x="245" y="-682.95" font-family="Times,serif" font-size="14.00">unk1</text>
</g>
<!-- 112.189.172.249&#45;&gt;unk1 -->
<g id="edge3" class="edge">
<title>112.189.172.249&#45;&gt;unk1</title>
<path fill="none" stroke="#a07070" d="M245,-741.7C245,-734.41 245,-725.73 245,-717.54"/>
<polygon fill="#a07070" stroke="#a07070" points="248.5,-717.62 245,-707.62 241.5,-717.62 248.5,-717.62"/>
</g>
<!-- 192.168.0.1 -->
<g id="node5" class="node">
<title>192.168.0.1</title>
<ellipse fill="none" stroke="black" cx="245" cy="-914.5" rx="55.45" ry="18"/>
<text text-anchor="middle" x="245" y="-909.45" font-family="Times,serif" font-size="14.00">192.168.0.1</text>
</g>
<!-- unk0 -->
<g id="node6" class="node">
<title>unk0</title>
<ellipse fill="none" stroke="black" cx="245" cy="-842.5" rx="29.34" ry="18"/>
<text text-anchor="middle" x="245" y="-837.45" font-family="Times,serif" font-size="14.00">unk0</text>
</g>
<!-- 192.168.0.1&#45;&gt;unk0 -->
<g id="edge1" class="edge">
<title>192.168.0.1&#45;&gt;unk0</title>
<path fill="none" stroke="#a07070" d="M245,-896.2C245,-888.91 245,-880.23 245,-872.04"/>
<polygon fill="#a07070" stroke="#a07070" points="248.5,-872.12 245,-862.12 241.5,-872.12 248.5,-872.12"/>
</g>
<!-- unk0&#45;&gt;112.189.172.249 -->
<g id="edge2" class="edge">
<title>unk0&#45;&gt;112.189.172.249</title>
<path fill="none" stroke="#a07070" d="M245,-824.03C245,-814.01 245,-801.18 245,-789.71"/>
<polygon fill="#a07070" stroke="#a07070" points="248.5,-789.95 245,-779.95 241.5,-789.95 248.5,-789.95"/>
</g>
<!-- unk2 -->
<g id="node8" class="node">
<title>unk2</title>
<ellipse fill="none" stroke="black" cx="245" cy="-616" rx="29.34" ry="18"/>
<text text-anchor="middle" x="245" y="-610.95" font-family="Times,serif" font-size="14.00">unk2</text>
</g>
<!-- unk1&#45;&gt;unk2 -->
<g id="edge4" class="edge">
<title>unk1&#45;&gt;unk2</title>
<path fill="none" stroke="#a07070" d="M245,-669.7C245,-662.41 245,-653.73 245,-645.54"/>
<polygon fill="#a07070" stroke="#a07070" points="248.5,-645.62 245,-635.62 241.5,-645.62 248.5,-645.62"/>
</g>
<!-- unk3 -->
<g id="node9" class="node">
<title>unk3</title>
<ellipse fill="none" stroke="black" cx="245" cy="-544" rx="29.34" ry="18"/>
<text text-anchor="middle" x="245" y="-538.95" font-family="Times,serif" font-size="14.00">unk3</text>
</g>
<!-- unk2&#45;&gt;unk3 -->
<g id="edge5" class="edge">
<title>unk2&#45;&gt;unk3</title>
<path fill="none" stroke="#a07070" d="M245,-597.7C245,-590.41 245,-581.73 245,-573.54"/>
<polygon fill="#a07070" stroke="#a07070" points="248.5,-573.62 245,-563.62 241.5,-573.62 248.5,-573.62"/>
</g>
<!-- unk3&#45;&gt;211.58.252.64 -->
<g id="edge6" class="edge">
<title>unk3&#45;&gt;211.58.252.64</title>
<path fill="none" stroke="#a07070" d="M245,-525.53C245,-515.51 245,-502.68 245,-491.21"/>
<polygon fill="#a07070" stroke="#a07070" points="248.5,-491.45 245,-481.45 241.5,-491.45 248.5,-491.45"/>
</g>
<!-- unk5 -->
<g id="node11" class="node">
<title>unk5</title>
<ellipse fill="none" stroke="black" cx="245" cy="-317.5" rx="29.34" ry="18"/>
<text text-anchor="middle" x="245" y="-312.45" font-family="Times,serif" font-size="14.00">unk5</text>
</g>
<!-- unk4&#45;&gt;unk5 -->
<g id="edge8" class="edge">
<title>unk4&#45;&gt;unk5</title>
<path fill="none" stroke="#a07070" d="M245,-371.2C245,-363.91 245,-355.23 245,-347.04"/>
<polygon fill="#a07070" stroke="#a07070" points="248.5,-347.12 245,-337.12 241.5,-347.12 248.5,-347.12"/>
</g>
<!-- unk6 -->
<g id="node12" class="node">
<title>unk6</title>
<ellipse fill="none" stroke="black" cx="245" cy="-245.5" rx="29.34" ry="18"/>
<text text-anchor="middle" x="245" y="-240.45" font-family="Times,serif" font-size="14.00">unk6</text>
</g>
<!-- unk5&#45;&gt;unk6 -->
<g id="edge9" class="edge">
<title>unk5&#45;&gt;unk6</title>
<path fill="none" stroke="#a07070" d="M245,-299.2C245,-291.91 245,-283.23 245,-275.04"/>
<polygon fill="#a07070" stroke="#a07070" points="248.5,-275.12 245,-265.12 241.5,-275.12 248.5,-275.12"/>
</g>
<!-- unk7 -->
<g id="node13" class="node">
<title>unk7</title>
<ellipse fill="none" stroke="black" cx="245" cy="-173.5" rx="29.34" ry="18"/>
<text text-anchor="middle" x="245" y="-168.45" font-family="Times,serif" font-size="14.00">unk7</text>
</g>
<!-- unk6&#45;&gt;unk7 -->
<g id="edge10" class="edge">
<title>unk6&#45;&gt;unk7</title>
<path fill="none" stroke="#a07070" d="M245,-227.2C245,-219.91 245,-211.23 245,-203.04"/>
<polygon fill="#a07070" stroke="#a07070" points="248.5,-203.12 245,-193.12 241.5,-203.12 248.5,-203.12"/>
</g>
<!-- unk7&#45;&gt;210.93.56.248 -->
<g id="edge11" class="edge">
<title>unk7&#45;&gt;210.93.56.248</title>
<path fill="none" stroke="#a07070" d="M245,-155.32C245,-145.19 245,-132.1 245,-120.42"/>
<polygon fill="#a07070" stroke="#a07070" points="248.5,-120.45 245,-110.45 241.5,-120.45 248.5,-120.45"/>
</g>
<!-- unk8&#45;&gt;210.93.48.59 -->
<g id="edge13" class="edge">
<title>unk8&#45;&gt;210.93.48.59:T80</title>
<path fill="none" stroke="#a07070" d="M181.98,-35.54C178.5,-43.99 174.34,-54.47 171,-64 168.97,-69.81 170.04,-76.43 170.09,-81.6"/>
<polygon fill="#a07070" stroke="#a07070" points="167.44,-79.31 163.94,-89.32 172.91,-83.68 167.44,-79.31"/>
</g>
</g>
</svg>
